<mxfile host="Electron" modified="2024-07-25T08:22:32.148Z" agent="Mozilla/5.0 (Macintosh; Intel Mac OS X 10_15_7) AppleWebKit/537.36 (KHTML, like Gecko) draw.io/24.6.4 Chrome/124.0.6367.207 Electron/30.0.6 Safari/537.36" etag="yPu2yMpW3GVO3FCLqhfn" version="24.6.4" type="device">
  <diagram name="페이지-1" id="eKXFkkpF1ipXkyZeAVVP">
    <mxGraphModel dx="979" dy="894" grid="1" gridSize="10" guides="1" tooltips="1" connect="1" arrows="1" fold="1" page="1" pageScale="1" pageWidth="827" pageHeight="1169" math="0" shadow="0">
      <root>
        <mxCell id="0" />
        <mxCell id="1" parent="0" />
        <mxCell id="P1bg4c8OXmAyIZHOdJ3V-5" value="도메인" style="rounded=1;whiteSpace=wrap;html=1;align=left;fontSize=13;fontStyle=1;fillColor=#dae8fc;strokeColor=#6c8ebf;" vertex="1" parent="1">
          <mxGeometry x="120" y="80" width="380" height="80" as="geometry" />
        </mxCell>
        <mxCell id="P1bg4c8OXmAyIZHOdJ3V-4" value="영속성" style="rounded=1;whiteSpace=wrap;html=1;align=left;fontSize=13;fontStyle=1;fillColor=#d5e8d4;strokeColor=#82b366;" vertex="1" parent="1">
          <mxGeometry x="120" y="190" width="380" height="80" as="geometry" />
        </mxCell>
        <mxCell id="P1bg4c8OXmAyIZHOdJ3V-8" style="edgeStyle=orthogonalEdgeStyle;rounded=0;orthogonalLoop=1;jettySize=auto;html=1;entryX=1;entryY=0.5;entryDx=0;entryDy=0;endArrow=block;endFill=1;" edge="1" parent="1" source="P1bg4c8OXmAyIZHOdJ3V-1" target="P1bg4c8OXmAyIZHOdJ3V-2">
          <mxGeometry relative="1" as="geometry" />
        </mxCell>
        <mxCell id="P1bg4c8OXmAyIZHOdJ3V-1" value="리포지터리" style="rounded=0;whiteSpace=wrap;html=1;" vertex="1" parent="1">
          <mxGeometry x="350" y="210" width="100" height="40" as="geometry" />
        </mxCell>
        <mxCell id="P1bg4c8OXmAyIZHOdJ3V-2" value="엔티티" style="rounded=0;whiteSpace=wrap;html=1;" vertex="1" parent="1">
          <mxGeometry x="190" y="210" width="100" height="40" as="geometry" />
        </mxCell>
        <mxCell id="P1bg4c8OXmAyIZHOdJ3V-6" style="edgeStyle=orthogonalEdgeStyle;rounded=0;orthogonalLoop=1;jettySize=auto;html=1;endArrow=block;endFill=1;" edge="1" parent="1" source="P1bg4c8OXmAyIZHOdJ3V-3" target="P1bg4c8OXmAyIZHOdJ3V-2">
          <mxGeometry relative="1" as="geometry">
            <Array as="points">
              <mxPoint x="240" y="120" />
            </Array>
          </mxGeometry>
        </mxCell>
        <mxCell id="P1bg4c8OXmAyIZHOdJ3V-7" style="edgeStyle=orthogonalEdgeStyle;rounded=0;orthogonalLoop=1;jettySize=auto;html=1;entryX=0.5;entryY=0;entryDx=0;entryDy=0;endArrow=block;endFill=1;" edge="1" parent="1" source="P1bg4c8OXmAyIZHOdJ3V-3" target="P1bg4c8OXmAyIZHOdJ3V-1">
          <mxGeometry relative="1" as="geometry">
            <Array as="points">
              <mxPoint x="400" y="120" />
            </Array>
          </mxGeometry>
        </mxCell>
        <mxCell id="P1bg4c8OXmAyIZHOdJ3V-3" value="서비스" style="rounded=0;whiteSpace=wrap;html=1;" vertex="1" parent="1">
          <mxGeometry x="270" y="100" width="100" height="40" as="geometry" />
        </mxCell>
      </root>
    </mxGraphModel>
  </diagram>
</mxfile>
